<?xml version="1.0" encoding="utf-8"?>
<!-- Generator: Adobe Illustrator 22.1.0, SVG Export Plug-In . SVG Version: 6.00 Build 0)  -->
<svg version="1.1" id="Layer_1" xmlns="http://www.w3.org/2000/svg" xmlns:xlink="http://www.w3.org/1999/xlink" x="0px" y="0px"
	 viewBox="0 0 300 330" style="enable-background:new 0 0 300 330;" xml:space="preserve">
<style type="text/css">
	.st0{fill:#E41B23;}
	.st1{fill:#FFFFFF;}
</style>
<g>
	<path class="st0" d="M291.4,0H8.6C4.2,0.5,0.5,4.2,0,8.6v312.8c0.5,4.4,4.2,8.1,8.6,8.6h282.8c4.4-0.5,8.1-4.2,8.6-8.6V8.6
		C299.5,4.2,295.8,0.5,291.4,0z"/>
	<g>
		<path class="st1" d="M91.9,180.9c10.8-9.2,20.5-20.2,26.7-33.1c3.8-8.1,6.8-16.5,8.3-25.3c2.1-12.7,2.9-25.6,3.6-38.5
			c0.4-8.9,0.6-17.8,0.6-26.8V25.1h-13.7c0,5.3,0,10.6,0,15.9c-0.4,15.7-1.3,31.4-3.7,46.9c-1.9,12.2-4.6,24.4-9.7,35.6
			c-4.4,9.8-10.1,19.1-17.3,27c-7,7.8-15.3,14.3-24.5,19.2c-7.8,4.1-16.2,7.2-24.9,8.5v26.9c7.2-1,14.3-2.8,21.2-5.2
			C70.5,195.7,82.2,189.5,91.9,180.9z"/>
		<path class="st1" d="M136.4,147.8c0,19.1-0.1,38.3,0.1,57.4c8.3-0.1,16.7,0,25.1,0v-180c-8.4,0-16.8,0-25.2,0
			C136.4,66,136.4,106.9,136.4,147.8z"/>
		<path class="st1" d="M250.1,175.7c-12.6-4.1-24.2-11-33.8-20.2c-10-9.5-17.7-21.4-23-34.1c-5.6-13.2-8.1-27.4-9.9-41.5
			c-2.2-18.2-2.8-36.5-2.7-54.8h-13.6v29.5c-0.1,17.4,0.5,34.8,2,52.1c0.8,8,1.7,16.1,3.8,23.9s5.2,15.3,9.2,22.4
			c5.1,9,11.9,17,19.5,24.1c4.6,4.2,9.4,8.3,14.7,11.7c7.2,4.7,15.1,8.4,23.3,11.2c6.9,2.3,13.9,4.2,21.1,5.1c0-9,0-17.9,0-26.9
			C257.2,177.7,253.6,176.8,250.1,175.7z"/>
		<path class="st1" d="M128.7,231.7v-12.6H82.2v12.6c5.7,0,11.4,0,17.1,0v69.7h12.3v-69.7C117.3,231.7,123,231.7,128.7,231.7
			L128.7,231.7z"/>
		<path class="st1" d="M221.9,267.3c2.4-1.8,5.2-3,7.4-5c4.3-3.7,6.6-9.2,7-14.7c0.4-5.5,0.4-10.9-2.1-15.7
			c-3.6-7.4-11.4-12.5-19.7-12.7h-14.7c-1.3,0-2.5,0.1-3.7,0.5c-4,1.3-7,5.3-7,9.5c0,24.1,0,48.2,0,72.3h12.4c0-22.4,0-44.8,0-67.2
			c0.1-1.5,1.3-2.7,2.8-2.7h9.5c4.6-0.2,8.9,3.4,9.9,7.8c0.8,3.4,0.9,7.3-0.9,10.4c-2.4,4.2-6.8,6.8-11.2,8.5
			c-2.3,0.9-4.4,2.6-5.3,5c-1.1,3.2-0.6,6.7,1.3,9.4c6.3,9.5,12.6,19.1,19,28.7h14.6c-6.6-9.9-13.4-19.8-19.9-29.8
			C220.5,270.2,220.6,268.3,221.9,267.3L221.9,267.3z"/>
		<path class="st1" d="M276,296.6c0.1-3-3.1-5.3-5.9-4.5c-2.1,0.5-3.6,2.4-3.6,4.5c-0.2,2.4,1.8,4.6,4.2,4.8
			C273.4,301.9,276.2,299.4,276,296.6z M271,300.6c-2.6,0-4.5-3.1-3.3-5.4c0.4-1,1.3-1.8,2.3-2.1c2-0.7,4.4,0.5,4.9,2.6
			S273.6,300.9,271,300.6z"/>
		<path class="st1" d="M153.6,219.3c-3.9-1-8,0.5-10.4,3.8c-1.4,1.9-1.7,4.3-2.4,6.4c-7,24-13.9,48-20.9,71.9h12.8
			c2-6.9,4-13.8,6-20.7c8.3,0,16.6,0,24.9,0c2,6.9,4,13.8,6,20.7c4.3,0,8.6,0,12.9,0c-7.3-25-14.5-50-21.8-75
			C159.8,223.1,157.1,220.1,153.6,219.3L153.6,219.3z M142.2,269c3-10.4,6-20.8,9-31.2c3,10.4,6,20.8,9,31.2H142.2z"/>
		<path class="st1" d="M66.6,221.2c-3.9-3.4-10.5-2.7-13.8,1.4c-1.8,2-2.1,4.8-2.9,7.3c-7,23.9-13.9,47.7-20.8,71.6h12.8
			c2-6.9,4-13.8,6.1-20.7h24.9c2,6.9,4,13.8,6,20.7h12.9c-7.3-25-14.6-50-21.9-75C69.4,224.4,68.2,222.6,66.6,221.2L66.6,221.2z
			 M51.4,269c3-10.4,6-20.8,9.1-31.1c3,10.4,6,20.8,9,31.1C63.4,269,57.4,269.1,51.4,269L51.4,269z"/>
		<path class="st1" d="M272.7,294.6c-1.1-0.7-2.4-0.2-3.6-0.4v5.1h0.9c0-0.8,0-1.5,0.1-2.3c0.4,0.1,0.9,0.2,1.2,0.4
			c0.7,0.8,0.9,2.3,2.3,1.9c-0.4-0.8-1-1.6-1.6-2.3C273,296.8,273.6,295.5,272.7,294.6L272.7,294.6z M270,296.5V295
			c0.7,0.1,1.7-0.2,2.1,0.5c0,0.1,0.1,0.1,0.1,0.2C272.1,296.7,270.7,296.4,270,296.5L270,296.5z"/>
		<path class="st1" d="M247.6,219.2v82.3h13c0-27.4,0-54.8,0-82.3L247.6,219.2z"/>
	</g>
</g>
</svg>
